<svg width="800" height="686" viewBox="0 0 800 686" fill="none" xmlns="http://www.w3.org/2000/svg">
<path d="M359.225 379.621C358.295 379.595 357.374 379.434 356.49 379.142L170.291 314.181C168.904 313.703 167.671 312.861 166.72 311.744C165.769 310.627 165.134 309.275 164.883 307.83C164.632 306.385 164.772 304.898 165.291 303.526C165.809 302.153 166.685 300.945 167.829 300.026L341.036 161.625C342.216 160.688 343.629 160.091 345.123 159.898C346.618 159.705 348.136 159.924 349.515 160.531C350.869 161.123 352.036 162.072 352.892 163.276C353.747 164.481 354.258 165.896 354.37 167.369L367.431 370.731C367.463 372.05 367.182 373.356 366.612 374.545C366.041 375.734 365.197 376.77 364.149 377.569C362.785 378.787 361.05 379.51 359.225 379.621ZM189.711 303.582L350.267 359.585L338.985 184.259L189.711 303.582Z" fill="#ffffff"/>
<path d="M222.057 566.161L208.996 556.246L352.594 366.423C353.264 365.558 354.101 364.837 355.056 364.303L564.094 243.065L343.773 175.847C342.159 175.347 340.737 174.365 339.698 173.032C338.659 171.7 338.053 170.081 337.961 168.394L331.123 4.2817L347.534 3.5979L354.372 161.83L587.002 232.535C588.537 232.998 589.902 233.901 590.93 235.131C591.957 236.362 592.602 237.867 592.784 239.46C592.966 241.053 592.677 242.664 591.953 244.095C591.229 245.525 590.102 246.713 588.711 247.51L364.766 377.432L222.057 566.161Z" fill="#ffffff"/>
<path d="M580.452 30.9989L564.041 32.1477L579.205 248.776L595.616 247.627L580.452 30.9989Z" fill="#ffffff"/>
<path d="M530.383 462.223L514.587 457.778L576.745 238.415C577.198 236.772 578.154 235.313 579.48 234.244L744.892 101.928L755.149 114.783L591.789 245.458L530.383 462.223Z" fill="#ffffff"/>
<path d="M131.196 66.2789L124.697 81.3484L342.953 175.48L349.452 160.41L131.196 66.2789Z" fill="#ffffff"/>
<path d="M90.0167 511.389L75.0415 504.551L158.739 318.078L25.8077 348.371L22.1836 332.37L171.116 298.18C172.61 297.847 174.167 297.935 175.614 298.434C177.061 298.933 178.341 299.824 179.312 301.008C180.283 302.191 180.907 303.621 181.113 305.138C181.32 306.654 181.102 308.199 180.484 309.599L90.0167 511.389Z" fill="#ffffff"/>
<path d="M363.562 360.582L348.479 367.05L407.2 503.991L422.283 497.523L363.562 360.582Z" fill="#ffffff"/>
<path d="M172.963 329.361C185.652 329.361 195.938 319.075 195.938 306.386C195.938 293.697 185.652 283.41 172.963 283.41C160.273 283.41 149.987 293.697 149.987 306.386C149.987 319.075 160.273 329.361 172.963 329.361Z" fill="#ffffff"/>
<path d="M584.611 263.647C597.3 263.647 607.587 253.36 607.587 240.671C607.587 227.982 597.3 217.695 584.611 217.695C571.922 217.695 561.635 227.982 561.635 240.671C561.635 253.36 571.922 263.647 584.611 263.647Z" fill="#ffffff"/>
<path d="M346.169 191.027C358.858 191.027 369.144 180.74 369.144 168.051C369.144 155.362 358.858 145.075 346.169 145.075C333.479 145.075 323.193 155.362 323.193 168.051C323.193 180.74 333.479 191.027 346.169 191.027Z" fill="#ffffff"/>
<path d="M359.227 394.39C371.916 394.39 382.203 384.103 382.203 371.414C382.203 358.725 371.916 348.438 359.227 348.438C346.538 348.438 336.251 358.725 336.251 371.414C336.251 384.103 346.538 394.39 359.227 394.39Z" fill="#ffffff"/>
<path d="M284.831 685.211C283.792 685.209 282.758 685.071 281.754 684.801L233.888 672.219C231.645 671.62 229.617 670.396 228.043 668.689C226.469 666.982 225.413 664.862 224.999 662.577L206.81 560.759L172.004 531.082L83.11 512.483C81.4619 512.151 79.9029 511.473 78.5356 510.495C77.1684 509.517 76.024 508.26 75.1779 506.807L1.73756 383.723C0.687694 381.969 0.0938558 379.98 0.0102441 377.937C-0.0733676 375.895 0.355913 373.864 1.2589 372.03L19.9951 335.105L27.9272 193.558C28.0744 191.216 28.8804 188.965 30.2521 187.062L118.121 66.7125C119.04 65.3774 120.214 64.2371 121.575 63.3571C122.936 62.477 124.458 61.8744 126.053 61.584L285.173 36.2833L332.698 2.29837C335.004 0.603133 337.846 -0.198582 340.698 0.0418256L565.19 19.3934C566.579 19.5274 567.94 19.8733 569.224 20.4191L748.586 102.475C751.324 103.745 753.493 105.987 754.672 108.766L799.05 212.431C799.965 214.587 800.226 216.965 799.802 219.269L770.331 385.843C770.052 387.476 769.441 389.036 768.535 390.424C767.63 391.812 766.449 392.999 765.065 393.912L644.511 473.78C642.173 475.327 639.366 476.005 636.579 475.694L526.419 464.48L423.848 505.508L294.747 680.288C293.605 681.838 292.109 683.093 290.385 683.949C288.66 684.806 286.757 685.238 284.831 685.211V685.211ZM247.427 651.021L279.908 659.5L405.933 488.55C407.266 486.713 409.091 485.291 411.198 484.447L520.059 440.889C521.874 440.137 523.85 439.855 525.803 440.068L634.664 451.351L747.492 376.748L775.391 218.858L734.363 123.126L561.156 43.4632L343.091 24.7271L297.071 57.7547C295.538 58.8751 293.754 59.6029 291.875 59.8745L134.6 85.1067L52.3389 198.344L44.1333 339.276C44.074 340.92 43.6538 342.531 42.9024 343.994L26.286 377.158L93.367 489.781L179.799 507.901C181.79 508.337 183.645 509.253 185.202 510.568L225.751 544.758C227.813 546.542 229.25 548.938 229.854 551.596L247.427 651.021Z" fill="#ffffff"/>
<path d="M583.427 229.043L573.004 241.719L759.659 395.203L770.082 382.527L583.427 229.043Z" fill="#ffffff"/>
<path d="M45.4104 188.009L34.8242 200.55L167.7 312.719L178.286 300.179L45.4104 188.009Z" fill="#ffffff"/>
</svg>
