<svg width="344" height="295" viewBox="0 0 344 295" fill="none" xmlns="http://www.w3.org/2000/svg">
<path d="M154.467 163.248C154.067 163.237 153.671 163.168 153.291 163.042L73.2252 135.107C72.6288 134.901 72.0986 134.539 71.6897 134.059C71.2808 133.579 71.0077 132.997 70.8998 132.376C70.7919 131.754 70.8521 131.115 71.0752 130.525C71.298 129.935 71.6747 129.415 72.1666 129.02L146.646 69.5034C147.153 69.1005 147.761 68.8437 148.403 68.7607C149.046 68.6777 149.699 68.7719 150.292 69.033C150.874 69.2875 151.376 69.6956 151.744 70.2134C152.111 70.7316 152.331 71.3401 152.379 71.9735L157.995 159.425C158.009 159.992 157.888 160.554 157.643 161.065C157.398 161.577 157.035 162.022 156.584 162.366C155.998 162.889 155.252 163.2 154.467 163.248ZM81.5758 130.549L150.615 154.632L145.764 79.2367L81.5758 130.549Z" fill="#13395B"/>
<path d="M95.4844 243.466L89.8682 239.202L151.615 157.573C151.903 157.201 152.263 156.891 152.674 156.661L242.56 104.525L147.822 75.6195C147.128 75.4045 146.517 74.9822 146.07 74.409C145.623 73.8362 145.363 73.14 145.323 72.4145L142.383 1.84142L149.44 1.54736L152.38 69.5918L252.411 99.997C253.071 100.196 253.658 100.584 254.1 101.113C254.541 101.643 254.819 102.29 254.897 102.975C254.975 103.66 254.851 104.353 254.54 104.968C254.228 105.583 253.744 106.094 253.146 106.437L156.849 162.307L95.4844 243.466Z" fill="#13395B"/>
<path d="M249.594 13.3306L242.538 13.8246L249.058 106.981L256.115 106.487L249.594 13.3306Z" fill="#13395B"/>
<path d="M228.065 198.769L221.272 196.858L248 102.525C248.195 101.819 248.606 101.191 249.176 100.732L320.304 43.832L324.714 49.3601L254.469 105.554L228.065 198.769Z" fill="#13395B"/>
<path d="M56.4142 28.502L53.6196 34.9823L147.47 75.4616L150.264 68.9811L56.4142 28.502Z" fill="#13395B"/>
<path d="M38.7073 219.912L32.268 216.971L68.2579 136.783L11.0974 149.809L9.53906 142.929L73.58 128.226C74.2224 128.083 74.8919 128.12 75.5141 128.335C76.1364 128.55 76.6868 128.933 77.1043 129.442C77.5218 129.951 77.7901 130.566 77.8787 131.218C77.9677 131.87 77.874 132.534 77.6082 133.136L38.7073 219.912Z" fill="#13395B"/>
<path d="M156.331 155.061L149.846 157.842L175.096 216.731L181.581 213.949L156.331 155.061Z" fill="#13395B"/>
<path d="M74.3738 141.635C79.8301 141.635 84.2531 137.211 84.2531 131.755C84.2531 126.298 79.8301 121.875 74.3738 121.875C68.9171 121.875 64.4941 126.298 64.4941 131.755C64.4941 137.211 68.9171 141.635 74.3738 141.635Z" fill="#13395B"/>
<path d="M251.383 113.376C256.839 113.376 261.262 108.952 261.262 103.496C261.262 98.0389 256.839 93.6152 251.383 93.6152C245.926 93.6152 241.503 98.0389 241.503 103.496C241.503 108.952 245.926 113.376 251.383 113.376Z" fill="#13395B"/>
<path d="M148.853 82.1474C154.309 82.1474 158.732 77.7237 158.732 72.2671C158.732 66.8104 154.309 62.3867 148.853 62.3867C143.396 62.3867 138.973 66.8104 138.973 72.2671C138.973 77.7237 143.396 82.1474 148.853 82.1474Z" fill="#13395B"/>
<path d="M154.468 169.599C159.924 169.599 164.347 165.175 164.347 159.719C164.347 154.262 159.924 149.838 154.468 149.838C149.011 149.838 144.588 154.262 144.588 159.719C144.588 165.175 149.011 169.599 154.468 169.599Z" fill="#13395B"/>
<path d="M122.477 294.661C122.031 294.66 121.586 294.601 121.154 294.484L100.572 289.074C99.6073 288.816 98.7353 288.29 98.0585 287.556C97.3817 286.822 96.9276 285.91 96.7496 284.927L88.9283 241.143L73.9617 228.381L35.7373 220.383C35.0286 220.24 34.3582 219.948 33.7703 219.528C33.1824 219.107 32.6903 218.567 32.3265 217.942L0.747151 165.012C0.295708 164.258 0.040358 163.402 0.00440496 162.524C-0.0315481 161.646 0.153043 160.772 0.541327 159.984L8.59789 144.105L12.0087 83.2356C12.072 82.2285 12.4186 81.2605 13.0084 80.4421L50.792 28.6883C51.1872 28.1142 51.692 27.6238 52.2772 27.2454C52.8625 26.8669 53.5169 26.6078 54.2028 26.4829L122.624 15.6029L143.06 0.988366C144.052 0.259365 145.274 -0.085396 146.5 0.0179863L243.032 8.33973C243.629 8.39735 244.214 8.5461 244.766 8.78081L321.892 44.0672C323.069 44.6134 324.002 45.5775 324.509 46.7725L343.591 91.3515C343.985 92.2787 344.097 93.3013 343.915 94.2921L331.242 165.924C331.122 166.626 330.86 167.297 330.47 167.894C330.081 168.491 329.573 169.001 328.978 169.394L277.14 203.739C276.134 204.404 274.927 204.696 273.729 204.562L226.36 199.74L182.255 217.383L126.741 292.544C126.25 293.21 125.607 293.75 124.866 294.118C124.124 294.487 123.305 294.672 122.477 294.661ZM106.394 279.958L120.36 283.604L174.551 210.091C175.124 209.301 175.909 208.689 176.815 208.326L223.625 189.595C224.406 189.272 225.255 189.15 226.095 189.242L272.906 194.094L321.422 162.013L333.418 94.1153L315.776 52.9478L241.297 18.6904L147.529 10.6334L127.741 24.8362C127.081 25.318 126.314 25.631 125.506 25.7478L57.878 36.5984L22.5057 85.2937L18.9773 145.899C18.9518 146.606 18.7711 147.298 18.448 147.927L11.303 162.189L40.1478 210.62L77.3136 218.412C78.1697 218.6 78.9673 218.994 79.6369 219.559L97.0729 234.262C97.9596 235.029 98.5775 236.059 98.8372 237.202L106.394 279.958Z" fill="#13395B"/>
<path d="M250.873 98.4951L246.392 103.946L326.653 169.949L331.135 164.498L250.873 98.4951Z" fill="#13395B"/>
<path d="M19.5267 80.8496L14.9746 86.2426L72.1112 134.479L76.6632 129.086L19.5267 80.8496Z" fill="#13395B"/>
</svg>
