<svg width="373" height="338" viewBox="0 0 373 338" fill="none" xmlns="http://www.w3.org/2000/svg">
<path d="M0 20C0 8.95431 8.95431 0 20 0H353C364.046 0 373 8.95431 373 20V338H0V20Z" fill="#FF4757"/>
<g clip-path="url(#clip0_1386_2)">
<path d="M171.525 185.026C171.195 185.016 170.868 184.959 170.554 184.855L104.453 161.75C103.961 161.58 103.523 161.28 103.186 160.883C102.848 160.485 102.623 160.005 102.534 159.491C102.444 158.977 102.494 158.448 102.678 157.96C102.862 157.471 103.173 157.042 103.579 156.715L165.068 107.488C165.487 107.154 165.988 106.942 166.519 106.873C167.049 106.805 167.588 106.883 168.078 107.099C168.559 107.309 168.973 107.647 169.277 108.075C169.58 108.503 169.762 109.007 169.801 109.531L174.438 181.864C174.449 182.333 174.35 182.797 174.147 183.22C173.945 183.643 173.645 184.011 173.273 184.296C172.789 184.729 172.173 184.986 171.525 185.026ZM111.347 157.98L168.345 177.899L164.34 115.538L111.347 157.98Z" fill="white"/>
<path d="M122.83 251.375L118.194 247.848L169.171 180.331C169.409 180.023 169.706 179.767 170.045 179.577L244.253 136.455L166.039 112.546C165.466 112.368 164.962 112.019 164.593 111.545C164.224 111.071 164.009 110.495 163.976 109.895L161.549 51.5229L167.375 51.2797L169.802 107.56L252.386 132.709C252.931 132.874 253.415 133.195 253.78 133.633C254.145 134.07 254.374 134.606 254.438 135.172C254.503 135.739 254.4 136.312 254.143 136.821C253.886 137.33 253.486 137.752 252.992 138.036L173.492 184.247L122.83 251.375Z" fill="white"/>
<path d="M250.06 61.0259L244.235 61.4345L249.618 138.486L255.444 138.077L250.06 61.0259Z" fill="white"/>
<path d="M232.286 214.406L226.678 212.825L248.745 134.801C248.905 134.216 249.245 133.697 249.715 133.317L308.437 86.2543L312.078 90.8266L254.085 137.306L232.286 214.406Z" fill="white"/>
<path d="M90.5746 73.5745L88.2675 78.9345L165.748 112.416L168.055 107.055L90.5746 73.5745Z" fill="white"/>
<path d="M75.9559 231.893L70.6397 229.461L100.352 163.136L53.1617 173.91L51.8751 168.219L104.746 156.058C105.276 155.94 105.829 155.971 106.343 156.149C106.857 156.326 107.311 156.643 107.656 157.064C108 157.485 108.222 157.993 108.295 158.533C108.369 159.072 108.291 159.622 108.072 160.12L75.9559 231.893Z" fill="white"/>
<path d="M173.064 178.254L167.71 180.554L188.556 229.262L193.91 226.962L173.064 178.254Z" fill="white"/>
<path d="M105.402 167.149C109.906 167.149 113.558 163.49 113.558 158.977C113.558 154.464 109.906 150.805 105.402 150.805C100.897 150.805 97.2454 154.464 97.2454 158.977C97.2454 163.49 100.897 167.149 105.402 167.149Z" fill="white"/>
<path d="M251.537 143.775C256.042 143.775 259.693 140.116 259.693 135.603C259.693 131.09 256.042 127.431 251.537 127.431C247.032 127.431 243.38 131.09 243.38 135.603C243.38 140.116 247.032 143.775 251.537 143.775Z" fill="white"/>
<path d="M166.89 117.946C171.395 117.946 175.046 114.287 175.046 109.773C175.046 105.26 171.395 101.601 166.89 101.601C162.385 101.601 158.734 105.26 158.734 109.773C158.734 114.287 162.385 117.946 166.89 117.946Z" fill="white"/>
<path d="M171.526 190.279C176.03 190.279 179.682 186.62 179.682 182.106C179.682 177.593 176.03 173.934 171.526 173.934C167.021 173.934 163.369 177.593 163.369 182.106C163.369 186.62 167.021 190.279 171.526 190.279Z" fill="white"/>
<path d="M145.115 293.719C144.746 293.719 144.379 293.67 144.023 293.574L127.03 289.098C126.234 288.885 125.514 288.45 124.955 287.843C124.396 287.236 124.022 286.482 123.875 285.669L117.418 249.454L105.061 238.898L73.504 232.283C72.919 232.164 72.3655 231.923 71.8801 231.575C71.3948 231.228 70.9885 230.781 70.6882 230.264L44.6168 186.485C44.2441 185.861 44.0333 185.153 44.0036 184.427C43.974 183.7 44.1263 182.978 44.4469 182.326L51.0983 169.192L53.9142 118.846C53.9664 118.013 54.2525 117.212 54.7395 116.535L85.933 73.7286C86.2592 73.2538 86.676 72.8482 87.1591 72.5352C87.6423 72.2221 88.1826 72.0078 88.7488 71.9045L145.236 62.9054L162.108 50.8175C162.926 50.2145 163.935 49.9294 164.948 50.0149L244.642 56.8979C245.136 56.9456 245.619 57.0686 246.075 57.2628L309.748 86.4488C310.72 86.9006 311.49 87.698 311.909 88.6865L327.663 125.559C327.988 126.325 328.08 127.171 327.93 127.991L317.467 187.239C317.368 187.819 317.152 188.374 316.83 188.868C316.509 189.362 316.089 189.784 315.598 190.109L272.801 218.517C271.971 219.067 270.975 219.308 269.986 219.197L230.879 215.209L194.466 229.802L148.635 291.968C148.23 292.52 147.699 292.966 147.087 293.27C146.474 293.575 145.799 293.729 145.115 293.719ZM131.837 281.559L143.367 284.574L188.106 223.77C188.579 223.117 189.227 222.611 189.975 222.311L228.621 206.818C229.265 206.55 229.967 206.45 230.66 206.526L269.306 210.539L309.36 184.004L319.264 127.845L304.699 93.7941L243.21 65.4592L165.797 58.7951L149.46 70.5425C148.916 70.941 148.283 71.1999 147.616 71.2965L91.783 80.2712L62.5803 120.548L59.6673 170.675C59.6463 171.26 59.4971 171.833 59.2304 172.354L53.3315 184.149L77.1453 224.208L107.829 230.653C108.535 230.808 109.194 231.134 109.747 231.601L124.142 243.762C124.874 244.397 125.384 245.249 125.598 246.195L131.837 281.559Z" fill="white"/>
<path d="M251.117 131.467L247.416 135.976L313.679 190.568L317.379 186.059L251.117 131.467Z" fill="white"/>
<path d="M60.1207 116.872L56.3625 121.333L103.533 161.23L107.291 156.769L60.1207 116.872Z" fill="white"/>
</g>
<defs>
<clipPath id="clip0_1386_2">
<rect width="284" height="244" fill="white" transform="translate(44 50)"/>
</clipPath>
</defs>
</svg>
