<svg width="873" height="1474" viewBox="0 0 873 1474" fill="none" xmlns="http://www.w3.org/2000/svg">
<rect width="873" height="1474" fill="white"/>
<path d="M418.67 729.941C418.386 729.933 418.105 729.884 417.835 729.795L360.989 709.955C360.566 709.809 360.189 709.552 359.899 709.211C359.608 708.869 359.415 708.456 359.338 708.015C359.261 707.574 359.304 707.12 359.463 706.701C359.621 706.281 359.888 705.912 360.237 705.632L413.117 663.362C413.477 663.076 413.908 662.894 414.364 662.835C414.821 662.776 415.284 662.843 415.705 663.028C416.119 663.209 416.475 663.499 416.736 663.867C416.997 664.235 417.153 664.667 417.187 665.117L421.175 727.226C421.185 727.629 421.099 728.028 420.925 728.391C420.751 728.754 420.493 729.07 420.173 729.314C419.756 729.686 419.227 729.907 418.67 729.941ZM366.918 706.718L415.935 723.822L412.49 670.275L366.918 706.718Z" fill="#30B3EC"/>
<path d="M376.793 786.913L372.805 783.885L416.645 725.91C416.85 725.646 417.105 725.426 417.397 725.263L481.215 688.235L413.952 667.706C413.459 667.553 413.025 667.253 412.708 666.846C412.391 666.439 412.206 665.945 412.178 665.43L410.09 615.308L415.1 615.099L417.188 663.425L488.209 685.019C488.677 685.161 489.094 685.436 489.408 685.812C489.722 686.188 489.918 686.648 489.974 687.134C490.03 687.621 489.941 688.113 489.72 688.55C489.499 688.986 489.155 689.349 488.731 689.593L420.361 729.272L376.793 786.913Z" fill="#30B3EC"/>
<path d="M486.209 623.467L481.199 623.818L485.828 689.979L490.839 689.628L486.209 623.467Z" fill="#30B3EC"/>
<path d="M470.923 755.169L466.101 753.811L485.077 686.815C485.216 686.313 485.508 685.868 485.912 685.541L536.412 645.13L539.543 649.056L489.67 688.966L470.923 755.169Z" fill="#30B3EC"/>
<path d="M349.054 634.242L347.069 638.845L413.702 667.594L415.686 662.991L349.054 634.242Z" fill="#30B3EC"/>
<path d="M336.482 770.185L331.91 768.096L357.462 711.145L316.879 720.397L315.773 715.51L361.241 705.068C361.697 704.966 362.172 704.993 362.614 705.145C363.056 705.298 363.447 705.57 363.743 705.932C364.04 706.293 364.23 706.73 364.293 707.193C364.356 707.656 364.29 708.128 364.101 708.555L336.482 770.185Z" fill="#30B3EC"/>
<path d="M419.994 724.126L415.389 726.102L433.316 767.925L437.921 765.95L419.994 724.126Z" fill="#30B3EC"/>
<path d="M361.805 714.591C365.679 714.591 368.819 711.449 368.819 707.574C368.819 703.699 365.679 700.557 361.805 700.557C357.931 700.557 354.79 703.699 354.79 707.574C354.79 711.449 357.931 714.591 361.805 714.591Z" fill="#30B3EC"/>
<path d="M487.479 694.521C491.353 694.521 494.493 691.379 494.493 687.504C494.493 683.629 491.353 680.487 487.479 680.487C483.605 680.487 480.464 683.629 480.464 687.504C480.464 691.379 483.605 694.521 487.479 694.521Z" fill="#30B3EC"/>
<path d="M414.684 672.342C418.558 672.342 421.698 669.2 421.698 665.325C421.698 661.45 418.558 658.308 414.684 658.308C410.809 658.308 407.669 661.45 407.669 665.325C407.669 669.2 410.809 672.342 414.684 672.342Z" fill="#30B3EC"/>
<path d="M418.67 734.452C422.544 734.452 425.685 731.31 425.685 727.435C425.685 723.559 422.544 720.417 418.67 720.417C414.796 720.417 411.656 723.559 411.656 727.435C411.656 731.31 414.796 734.452 418.67 734.452Z" fill="#30B3EC"/>
<path d="M395.958 823.272C395.64 823.271 395.325 823.229 395.018 823.147L380.405 819.304C379.72 819.121 379.101 818.747 378.62 818.226C378.14 817.705 377.817 817.057 377.691 816.359L372.138 785.263L361.512 776.199L334.373 770.519C333.87 770.417 333.394 770.21 332.977 769.912C332.559 769.613 332.21 769.229 331.951 768.785L309.53 731.194C309.21 730.658 309.029 730.051 309.003 729.427C308.978 728.803 309.109 728.183 309.384 727.623L315.104 716.345L317.526 673.115C317.571 672.4 317.817 671.712 318.236 671.131L345.062 634.375C345.342 633.967 345.701 633.619 346.116 633.35C346.532 633.081 346.996 632.897 347.483 632.809L396.062 625.081L410.571 614.702C411.275 614.184 412.143 613.939 413.013 614.013L481.55 619.923C481.974 619.964 482.389 620.07 482.781 620.236L537.54 645.297C538.376 645.685 539.038 646.37 539.398 647.219L552.946 678.879C553.225 679.538 553.305 680.264 553.176 680.967L544.178 731.841C544.093 732.34 543.907 732.816 543.63 733.24C543.354 733.664 542.993 734.027 542.571 734.306L505.766 758.698C505.052 759.171 504.195 759.378 503.344 759.283L469.713 755.858L438.399 768.389L398.985 821.768C398.636 822.242 398.179 822.625 397.653 822.887C397.126 823.148 396.546 823.28 395.958 823.272ZM384.538 812.83L394.455 815.42L432.929 763.209C433.336 762.648 433.893 762.214 434.537 761.956L467.771 748.653C468.326 748.423 468.929 748.337 469.525 748.402L502.76 751.848L537.206 729.064L545.723 680.842L533.197 651.604L480.318 627.274L413.744 621.552L399.694 631.639C399.226 631.981 398.682 632.203 398.108 632.286L350.093 639.993L324.979 674.577L322.474 717.619C322.456 718.121 322.327 718.613 322.098 719.06L317.025 729.189L337.504 763.585L363.892 769.119C364.5 769.252 365.066 769.532 365.541 769.934L377.921 780.376C378.55 780.921 378.989 781.653 379.173 782.464L384.538 812.83Z" fill="#30B3EC"/>
<path d="M487.117 683.953L483.935 687.824L540.92 734.7L544.102 730.829L487.117 683.953Z" fill="#30B3EC"/>
<path d="M322.864 671.42L319.632 675.25L360.198 709.508L363.43 705.678L322.864 671.42Z" fill="#30B3EC"/>
</svg>
